<?xml version="1.0" encoding="UTF-8"?>
<svg width="161px" height="41px" viewBox="0 0 161 41" version="1.1" xmlns="http://www.w3.org/2000/svg" xmlns:xlink="http://www.w3.org/1999/xlink">
    <!-- Generator: Sketch 52.6 (67491) - http://www.bohemiancoding.com/sketch -->
    <title>Mastadon Button</title>
    <desc>Created with Sketch.</desc>
    <g id="App" stroke="none" stroke-width="1" fill="none" fill-rule="evenodd">
        <g id="Full-Player---Post-Episode" transform="translate(-243.000000, -440.000000)">
            <g id="Mastadon-Button" transform="translate(243.000000, 440.000000)">
                <path d="M7.40647482,0.5 L153.593525,0.5 C157.392086,0.5 160.5,3.2 160.5,6.5 L160.5,34.5 C160.5,37.8 157.392086,40.5 153.593525,40.5 L7.40647482,40.5 C3.60791367,40.5 0.5,37.8 0.5,34.5 L0.5,6.5 C0.5,3.2 3.60791367,0.5 7.40647482,0.5 Z" id="Mask-Copy-10" stroke="#848892" fill="#323947"></path>
                <g id="mastadon-logo" transform="translate(71.000000, 15.000000)">
                    <path d="M17.5160826,10.8356987 C17.2660784,12.1054735 15.2779621,13.4949974 12.9943746,13.7643048 C11.8035515,13.9047797 10.631252,14.0336122 9.38110153,13.9770641 C7.33650765,13.8845656 5.72326814,13.4949974 5.72326814,13.4949974 C5.72326814,13.6916366 5.73557405,13.8788085 5.76005633,14.0538263 C6.02586389,16.0465732 7.7608671,16.1660664 9.40428845,16.221719 C11.062995,16.2777554 12.5398333,15.8176939 12.5398333,15.8176939 L12.6080987,17.2989486 C12.6080987,17.2989486 11.4478461,17.9141977 9.38110153,18.027294 C8.24131557,18.0892156 6.82626592,17.99902 5.17792221,17.568256 C1.60325083,16.6336762 0.98847368,12.870281 0.894430651,9.05161701 C0.865673692,7.9178392 0.883420104,6.84866958 0.883420104,5.95464574 C0.883420104,2.04975222 3.47374854,0.905227706 3.47374854,0.905227706 C4.77985853,0.312751399 7.02108785,0.0636580343 9.35104922,0.0448512934 L9.40830406,0.0448512934 C11.7382654,0.0636580343 13.9809196,0.312751399 15.2870296,0.905227706 C15.2870296,0.905227706 17.8773581,2.04975222 17.8773581,5.95464574 C17.8773581,5.95464574 17.909742,8.8355314 17.5160826,10.8356987" id="Path" fill="#3088D4"></path>
                    <path d="M4.87800448,4.8830506 C4.87800448,4.30414438 5.34238406,3.83494759 5.91505871,3.83494759 C6.48786228,3.83494759 6.95211294,4.30414438 6.95211294,4.8830506 C6.95211294,5.46182653 6.48786228,5.9311536 5.91505871,5.9311536 C5.34238406,5.9311536 4.87800448,5.46182653 4.87800448,4.8830506 Z M19.7512753,6.15534133 L19.7512753,10.9705694 L17.863718,10.9705694 L17.863718,6.29684305 C17.863718,5.31154283 17.453486,4.81159614 16.6330219,4.81159614 C15.7260507,4.81159614 15.2713403,5.40483495 15.2713403,6.57776176 L15.2713403,9.13586796 L13.3948703,9.13586796 L13.3948703,6.57776176 C13.3948703,5.40483495 12.94016,4.81159614 12.0331887,4.81159614 C11.2127247,4.81159614 10.8024926,5.31154283 10.8024926,6.29684305 L10.8024926,10.9705694 L8.91493531,10.9705694 L8.91493531,6.15534133 C8.91493531,5.17121378 9.16285367,4.38917571 9.66088207,3.81053008 C10.1745101,3.23201474 10.8470999,2.93546049 11.6818744,2.93546049 C12.6478922,2.93546049 13.3793996,3.31058338 13.8628597,4.06108976 L14.3331698,4.85772101 L14.8033509,4.06108976 C15.2869399,3.31058338 16.0183184,2.93546049 16.9844652,2.93546049 C17.8192397,2.93546049 18.4917005,3.23201474 19.0053285,3.81053008 C19.5033569,4.38917571 19.7512753,5.17121378 19.7512753,6.15534133 Z M26.2539302,8.5490267 C26.6434057,8.13312108 26.8309882,7.60933017 26.8309882,6.97765397 C26.8309882,6.34597776 26.6434057,5.82218685 26.2539302,5.42165619 C25.878894,5.00562028 25.4026536,4.80548524 24.8255956,4.80548524 C24.2484086,4.80548524 23.7722971,5.00562028 23.3972609,5.42165619 C23.0220959,5.82218685 22.8345133,6.34597776 22.8345133,6.97765397 C22.8345133,7.60933017 23.0220959,8.13312108 23.3972609,8.5490267 C23.7722971,8.94955736 24.2484086,9.14982269 24.8255956,9.14982269 C25.4026536,9.14982269 25.878894,8.94955736 26.2539302,8.5490267 Z M26.8309882,3.12609693 L28.6922453,3.12609693 L28.6922453,10.829211 L26.8309882,10.829211 L26.8309882,9.9201341 C26.2683695,10.6750705 25.4891607,11.0448513 24.4793092,11.0448513 C23.5126467,11.0448513 22.6902488,10.6596956 21.9976761,9.87387893 C21.3196716,9.08819256 20.9733852,8.11761582 20.9733852,6.97765397 C20.9733852,5.85306706 21.3196716,4.88236003 21.9976761,4.09667366 C22.6902488,3.3109873 23.5126467,2.91045664 24.4793092,2.91045664 C25.4891607,2.91045664 26.2683695,3.28023738 26.8309882,4.03504354 L26.8309882,3.12609693 Z M34.9543304,6.83901876 C35.5025097,7.25492438 35.7767283,7.84034541 35.762289,8.57977661 C35.762289,9.36559327 35.4880704,9.98176422 34.9254517,10.4131751 C34.3627041,10.829211 33.6846996,11.0448513 32.8623017,11.0448513 C31.3762097,11.0448513 30.3662292,10.42855 29.8323603,9.21145281 L31.4484064,8.24100637 C31.6647387,8.90330219 32.1408502,9.24233302 32.8623017,9.24233302 C33.5258669,9.24233302 33.8578428,9.02656244 33.8578428,8.57977661 C33.8578428,8.25625103 33.4249204,7.96360566 32.544894,7.73259042 C32.212918,7.64008008 31.9388284,7.54770004 31.7224961,7.47056467 C31.4195277,7.34743471 31.1598774,7.20866921 30.9434162,7.03928409 C30.4095473,6.62337847 30.1354576,6.06857706 30.1354576,5.36002607 C30.1354576,4.60508962 30.3951079,4.00429363 30.9145375,3.57288275 C31.4484064,3.12609693 32.0975322,2.91045664 32.876741,2.91045664 C34.1174931,2.91045664 35.0265271,3.44962251 35.6178956,4.54345949 L34.030986,5.46778106 C33.8000854,4.94412045 33.41061,4.68222499 32.876741,4.68222499 C32.3139934,4.68222499 32.0399038,4.89786528 32.0399038,5.3137709 C32.0399038,5.63729648 32.4726973,5.92994185 33.3528526,6.16108739 C34.030986,6.31509755 34.564726,6.54624309 34.9543304,6.83901876 Z M40.8700389,5.03650049 L39.2396824,5.03650049 L39.2396824,8.24100637 C39.2396824,8.62616207 39.3840758,8.85717732 39.6581655,8.96493231 C39.8601874,9.04206769 40.2641022,9.05744265 40.8700389,9.02656244 L40.8700389,10.829211 C39.6149764,10.9832212 38.7059424,10.8599609 38.1720735,10.443925 C37.6383335,10.0433943 37.3785542,9.30396315 37.3785542,8.24100637 L37.3785542,5.03650049 L36.1233628,5.03650049 L36.1233628,3.12609693 L37.3785542,3.12609693 L37.3785542,1.57009915 L39.2396824,0.969303161 L39.2396824,3.12609693 L40.8700389,3.12609693 L40.8700389,5.03650049 Z M46.8003028,8.50283668 C47.1754678,8.10217572 47.3629214,7.59375977 47.3629214,6.97758882 C47.3629214,6.36141787 47.1754678,5.85300192 46.8003028,5.45247125 C46.4251377,5.0518103 45.9634655,4.85167526 45.4007179,4.85167526 C44.8380992,4.85167526 44.376427,5.0518103 44.001262,5.45247125 C43.6405362,5.86837687 43.4529537,6.37679283 43.4529537,6.97758882 C43.4529537,7.57851511 43.6405362,8.08693106 44.001262,8.50283668 C44.376427,8.90336734 44.8380992,9.10363267 45.4007179,9.10363267 C45.9634655,9.10363267 46.4251377,8.90336734 46.8003028,8.50283668 Z M42.6883131,9.87394408 C41.9525513,9.08825771 41.5918255,8.13305593 41.5918255,6.97758882 C41.5918255,5.83749666 41.9525513,4.88242518 42.6883131,4.09673881 C43.424075,3.31105245 44.333109,2.91052179 45.4007179,2.91052179 C46.4684557,2.91052179 47.3773608,3.31105245 48.1132516,4.09673881 C48.8491424,4.88242518 49.2241785,5.85300192 49.2241785,6.97758882 C49.2241785,8.11768097 48.8491424,9.08825771 48.1132516,9.87394408 C47.3773608,10.6597607 46.4828951,11.0447861 45.4007179,11.0447861 C44.3186696,11.0447861 43.424075,10.6597607 42.6883131,9.87394408 Z M55.4429069,8.5490267 C55.818072,8.13312108 56.0055256,7.60933017 56.0055256,6.97765397 C56.0055256,6.34597776 55.818072,5.82218685 55.4429069,5.42165619 C55.0678708,5.00562028 54.5916303,4.80548524 54.0145723,4.80548524 C53.4373854,4.80548524 52.9612738,5.00562028 52.5717983,5.42165619 C52.1967622,5.82218685 52.0090507,6.34597776 52.0090507,6.97765397 C52.0090507,7.60933017 52.1967622,8.13312108 52.5717983,8.5490267 C52.9612738,8.94955736 53.4518247,9.14982269 54.0145723,9.14982269 C54.5916303,9.14982269 55.0678708,8.94955736 55.4429069,8.5490267 Z M56.0055256,0.0448512934 L57.8667827,0.0448512934 L57.8667827,10.829211 L56.0055256,10.829211 L56.0055256,9.9201341 C55.4573463,10.6750705 54.6781375,11.0448513 53.6682859,11.0448513 C52.7016235,11.0448513 51.8649151,10.6596956 51.1723424,9.87387893 C50.494209,9.08819256 50.1479226,8.11761582 50.1479226,6.97765397 C50.1479226,5.85306706 50.494209,4.88236003 51.1723424,4.09667366 C51.8649151,3.3109873 52.7016235,2.91045664 53.6682859,2.91045664 C54.6781375,2.91045664 55.4573463,3.28023738 56.0055256,4.03504354 L56.0055256,0.0448512934 Z M64.4030348,8.50283668 C64.778071,8.10217572 64.9656535,7.59375977 64.9656535,6.97758882 C64.9656535,6.36141787 64.778071,5.85300192 64.4030348,5.45247125 C64.0278698,5.0518103 63.5661976,4.85167526 63.00345,4.85167526 C62.4408313,4.85167526 61.9790302,5.0518103 61.603994,5.45247125 C61.2431394,5.86837687 61.0556858,6.37679283 61.0556858,6.97758882 C61.0556858,7.57851511 61.2431394,8.08693106 61.603994,8.50283668 C61.9790302,8.90336734 62.4408313,9.10363267 63.00345,9.10363267 C63.5661976,9.10363267 64.0278698,8.90336734 64.4030348,8.50283668 Z M60.2910452,9.87394408 C59.5551544,9.08825771 59.1945576,8.13305593 59.1945576,6.97758882 C59.1945576,5.83749666 59.5551544,4.88242518 60.2910452,4.09673881 C61.026936,3.31105245 61.935841,2.91052179 63.00345,2.91052179 C64.0711878,2.91052179 64.9800928,3.31105245 65.7159836,4.09673881 C66.4518744,4.88242518 66.8269106,5.85300192 66.8269106,6.97758882 C66.8269106,8.11768097 66.4518744,9.08825771 65.7159836,9.87394408 C64.9800928,10.6597607 64.0856271,11.0447861 63.00345,11.0447861 C61.9214017,11.0447861 61.026936,10.6597607 60.2910452,9.87394408 Z M74.8780045,6.09948332 L74.8780045,10.8291068 L73.0167474,10.8291068 L73.0167474,6.34600382 C73.0167474,5.83758787 72.8869222,5.45243217 72.6272719,5.1597868 C72.381932,4.89789134 72.0356456,4.75912584 71.5884128,4.75912584 C70.5351143,4.75912584 70.0013743,5.39080204 70.0013743,6.6695294 L70.0013743,10.8291068 L68.1401172,10.8291068 L68.1401172,3.12612298 L70.0013743,3.12612298 L70.0013743,3.98881443 C70.4486072,3.26475819 71.1554903,2.9104827 72.1511604,2.9104827 C72.9446796,2.9104827 73.5939344,3.18775311 74.0989246,3.75779919 C74.6182252,4.32784526 74.8780045,5.09815667 74.8780045,6.09948332 Z" id="Shape" fill="#FFFFFF" fill-rule="nonzero"></path>
                </g>
                <text id="Talk-on" font-family="NotoSans, Noto Sans" font-size="14" font-weight="normal" fill="#FFFFFF">
                    <tspan x="19" y="26">Talk on</tspan>
                </text>
            </g>
        </g>
    </g>
</svg>